<?xml version="1.0" encoding="utf-8"?>
<!-- Generator: Adobe Illustrator 25.4.1, SVG Export Plug-In . SVG Version: 6.00 Build 0)  -->
<svg version="1.1"
	 id="Layer_1" xmlns:cc="http://creativecommons.org/ns#" xmlns:dc="http://purl.org/dc/elements/1.1/" xmlns:rdf="http://www.w3.org/1999/02/22-rdf-syntax-ns#"
	 xmlns="http://www.w3.org/2000/svg" xmlns:xlink="http://www.w3.org/1999/xlink" x="0px" y="0px" viewBox="0 0 148.7 80.6"
	 style="enable-background:new 0 0 148.7 80.6;" xml:space="preserve">
<style type="text/css">
	.st0{fill:#C6C6C6;}
	.st1{fill:#454545;}
</style>
<g>
	<path d="M60.9,11.3h-1.5l-1-3.5h-3.3l-1,3.5h-1.4l3.6-10.9h1.1L60.9,11.3z M58.1,6.7l-0.9-3c-0.1-0.4-0.2-0.8-0.3-1.2
		c-0.1-0.4-0.1-0.7-0.1-0.9h0c0,0.2-0.1,0.5-0.2,0.9c-0.1,0.4-0.2,0.7-0.3,1.1l-0.9,3L58.1,6.7z M67.3,11.3h-1.2v-0.9h0
		c0,0.1-0.1,0.2-0.2,0.3c-0.1,0.1-0.2,0.2-0.4,0.3c-0.2,0.1-0.4,0.2-0.6,0.3c-0.2,0.1-0.5,0.1-0.8,0.1c-0.3,0-0.6,0-0.9-0.1
		c-0.3-0.1-0.5-0.3-0.7-0.5c-0.2-0.2-0.3-0.5-0.4-0.9c-0.1-0.4-0.2-0.8-0.2-1.3v-5h1.3v4.9c0,0.6,0.1,1.1,0.3,1.4
		c0.2,0.3,0.5,0.4,1,0.4c0.4,0,0.7-0.1,0.9-0.3c0.3-0.2,0.5-0.4,0.6-0.5V3.6h1.3V11.3z M72.5,5.2c-0.1-0.1-0.2-0.2-0.5-0.4
		c-0.2-0.2-0.5-0.2-0.9-0.2c-0.3,0-0.6,0.1-0.8,0.2c-0.2,0.2-0.3,0.3-0.3,0.6c0,0.3,0.1,0.5,0.3,0.7c0.2,0.2,0.4,0.4,0.8,0.6
		l0.5,0.3c0.5,0.3,0.9,0.6,1.2,1c0.3,0.4,0.4,0.8,0.4,1.4c0,0.6-0.2,1.1-0.6,1.5c-0.4,0.4-1,0.6-1.8,0.6c-0.3,0-0.6,0-0.8-0.1
		c-0.2-0.1-0.4-0.1-0.6-0.2c-0.2-0.1-0.3-0.2-0.4-0.3c-0.1-0.1-0.2-0.2-0.3-0.3l0.6-1c0.1,0.1,0.1,0.1,0.2,0.2
		c0.1,0.1,0.2,0.2,0.3,0.3c0.1,0.1,0.3,0.1,0.4,0.2c0.2,0.1,0.3,0.1,0.6,0.1c0.4,0,0.7-0.1,0.9-0.3c0.2-0.2,0.3-0.4,0.3-0.6
		c0-0.2,0-0.3-0.1-0.5c0-0.1-0.1-0.3-0.2-0.4c-0.1-0.1-0.2-0.2-0.3-0.3C71.3,8.2,71.1,8.1,71,8l-0.5-0.3c-0.5-0.3-0.8-0.6-1.1-1
		C69.1,6.4,69,5.9,69,5.4c0-0.3,0.1-0.5,0.2-0.8s0.3-0.4,0.5-0.6c0.2-0.2,0.4-0.3,0.7-0.4c0.3-0.1,0.6-0.2,0.9-0.2
		c0.3,0,0.6,0,0.8,0.1c0.2,0.1,0.4,0.1,0.6,0.2c0.2,0.1,0.3,0.2,0.4,0.3C73,4.1,73,4.2,73.1,4.3L72.5,5.2z M83.5,3.6l-2.3,7.6h-1.1
		l-0.8-2.7c-0.1-0.4-0.2-0.7-0.3-1.1c-0.1-0.3-0.1-0.6-0.2-0.9h0c0,0.3-0.1,0.6-0.2,1c-0.1,0.3-0.2,0.7-0.3,1.1l-0.9,2.7h-1.1
		l-2.4-7.6h1.4L76.5,8c0.1,0.4,0.2,0.8,0.3,1.1s0.1,0.7,0.1,1h0c0-0.3,0.1-0.6,0.2-1c0.1-0.3,0.2-0.7,0.3-1.1l0.8-2.5l-0.6-1.9H79
		l1.2,4.2c0.1,0.4,0.2,0.8,0.3,1.2c0.1,0.4,0.2,0.7,0.2,1h0c0-0.3,0.1-0.6,0.2-1c0.1-0.4,0.2-0.8,0.3-1.2l1.1-4.2L83.5,3.6z
		 M84.2,9.3c0-0.4,0.1-0.8,0.3-1.1c0.2-0.3,0.4-0.5,0.7-0.7c0.3-0.2,0.6-0.3,1-0.4C86.5,7,86.9,7,87.4,7h0.4V6.2
		c0-0.6-0.1-1.1-0.3-1.3c-0.2-0.2-0.5-0.4-1-0.4c-0.4,0-0.7,0.1-1,0.2c-0.3,0.2-0.5,0.3-0.6,0.4l-0.5-0.9c0.1-0.1,0.2-0.2,0.3-0.3
		C84.8,4,85,3.9,85.2,3.8c0.2-0.1,0.4-0.2,0.7-0.2c0.2-0.1,0.5-0.1,0.8-0.1c0.8,0,1.4,0.2,1.8,0.7C88.8,4.5,89,5.2,89,6.2v3.5
		c0,0.3,0,0.7,0,1c0,0.3,0,0.5,0.1,0.6h-1.2l0-0.8h0c0,0.1-0.1,0.2-0.2,0.3c-0.1,0.1-0.2,0.2-0.3,0.3c-0.1,0.1-0.3,0.2-0.5,0.3
		c-0.2,0.1-0.4,0.1-0.6,0.1c-0.3,0-0.6-0.1-0.8-0.2c-0.2-0.1-0.5-0.3-0.7-0.4c-0.2-0.2-0.3-0.4-0.4-0.7C84.3,9.9,84.2,9.6,84.2,9.3
		 M86.5,10.3c0.2,0,0.3,0,0.5-0.1c0.1-0.1,0.3-0.1,0.4-0.2c0.1-0.1,0.2-0.2,0.3-0.2c0.1-0.1,0.1-0.2,0.2-0.2V7.9l-0.4,0
		c-0.6,0-1.1,0.1-1.4,0.3c-0.3,0.2-0.5,0.5-0.5,0.9c0,0.4,0.1,0.7,0.3,0.9C85.9,10.2,86.2,10.3,86.5,10.3 M86.2,1.4
		c0,0.2-0.1,0.4-0.2,0.6c-0.2,0.1-0.3,0.2-0.5,0.2c-0.2,0-0.4-0.1-0.5-0.2c-0.2-0.2-0.2-0.3-0.2-0.6c0-0.2,0.1-0.4,0.2-0.6
		c0.1-0.1,0.3-0.2,0.5-0.2s0.4,0.1,0.5,0.2C86.1,1,86.2,1.2,86.2,1.4 M88.6,1.4c0,0.2-0.1,0.4-0.2,0.6c-0.2,0.1-0.3,0.2-0.5,0.2
		c-0.2,0-0.4-0.1-0.5-0.2c-0.2-0.2-0.2-0.3-0.2-0.6c0-0.2,0.1-0.4,0.2-0.6c0.1-0.1,0.3-0.2,0.5-0.2c0.2,0,0.4,0.1,0.5,0.2
		C88.6,1,88.6,1.2,88.6,1.4 M94.3,4.8c0,0-0.1,0-0.2-0.1c-0.1,0-0.2,0-0.4,0c-0.4,0-0.7,0.1-0.9,0.3c-0.2,0.2-0.4,0.5-0.5,0.7v5.6
		H91V3.6h1.2v1h0c0.1-0.2,0.1-0.3,0.2-0.4c0.1-0.1,0.2-0.3,0.3-0.4c0.1-0.1,0.3-0.2,0.5-0.3c0.2-0.1,0.4-0.1,0.6-0.1
		c0.2,0,0.3,0,0.4,0c0.1,0,0.2,0.1,0.3,0.1L94.3,4.8z M98.8,4.7h-1.7v4.2c0,0.5,0.1,0.9,0.2,1.1c0.1,0.2,0.4,0.3,0.7,0.3
		c0.2,0,0.4,0,0.5-0.1c0.1-0.1,0.2-0.1,0.3-0.1l0.2,1c-0.1,0-0.2,0.1-0.4,0.2c-0.2,0.1-0.5,0.1-0.8,0.1c-0.7,0-1.1-0.2-1.5-0.5
		c-0.3-0.4-0.5-1-0.5-1.8V4.7H95V3.8l0.9-0.2L96,1.5h1.1v2.1H99L98.8,4.7z M101.6,11.3h-1.3V3.6h1.3V11.3z M101,1.8
		c-0.3,0-0.5-0.1-0.6-0.3c-0.2-0.2-0.2-0.4-0.2-0.7c0-0.3,0.1-0.5,0.2-0.7c0.2-0.2,0.4-0.3,0.6-0.3c0.3,0,0.5,0.1,0.6,0.3
		c0.2,0.2,0.2,0.4,0.2,0.7c0,0.3-0.1,0.5-0.2,0.7C101.4,1.7,101.2,1.8,101,1.8 M109,4.6h-1c0.2,0.4,0.4,0.9,0.4,1.4
		c0,0.4-0.1,0.8-0.2,1.1c-0.1,0.3-0.3,0.6-0.6,0.8c-0.2,0.2-0.5,0.4-0.8,0.5c-0.3,0.1-0.7,0.2-1,0.2h-0.2c-0.1,0-0.1,0-0.2,0
		c-0.1,0.1-0.3,0.1-0.4,0.3c-0.1,0.1-0.2,0.3-0.2,0.5c0,0.2,0.1,0.3,0.2,0.4c0.1,0.1,0.3,0.2,0.6,0.2h1c0.4,0,0.7,0,1,0.1
		c0.3,0.1,0.6,0.2,0.8,0.4c0.2,0.2,0.4,0.4,0.5,0.6c0.1,0.3,0.2,0.6,0.2,0.9c0,0.4-0.1,0.8-0.3,1.1c-0.2,0.3-0.4,0.6-0.7,0.9
		c-0.3,0.2-0.7,0.4-1.2,0.6c-0.5,0.1-1,0.2-1.5,0.2c-0.8,0-1.4-0.2-1.9-0.5c-0.4-0.4-0.6-0.9-0.6-1.5c0-0.3,0.1-0.5,0.2-0.7
		c0.1-0.2,0.2-0.4,0.4-0.5c0.1-0.2,0.3-0.3,0.4-0.4c0.1-0.1,0.3-0.2,0.3-0.2v0c-0.3-0.2-0.5-0.6-0.5-1.1c0-0.2,0-0.4,0.1-0.5
		c0.1-0.2,0.2-0.3,0.3-0.4c0.1-0.1,0.2-0.2,0.3-0.2c0.1-0.1,0.2-0.1,0.2-0.1v0c-0.4-0.2-0.7-0.5-0.9-0.8c-0.2-0.4-0.4-0.9-0.4-1.5
		c0-0.4,0.1-0.8,0.2-1.1c0.1-0.3,0.3-0.6,0.6-0.8c0.2-0.2,0.5-0.4,0.8-0.5c0.3-0.1,0.7-0.2,1-0.2s0.7,0.1,1,0.2h2.3L109,4.6z
		 M105.5,11c-0.2,0-0.4,0-0.6,0c-0.1,0.1-0.2,0.1-0.3,0.2c-0.1,0.1-0.2,0.2-0.2,0.3c-0.1,0.1-0.1,0.2-0.2,0.4c0,0.1-0.1,0.3-0.1,0.5
		c0,0.8,0.4,1.2,1.3,1.2c0.8,0,1.3-0.2,1.7-0.5c0.4-0.3,0.6-0.7,0.6-1c0-0.4-0.1-0.6-0.3-0.8c-0.2-0.2-0.5-0.2-0.9-0.2H105.5z
		 M107.2,6c0-0.5-0.1-0.9-0.4-1.2c-0.3-0.2-0.6-0.3-0.9-0.3c-0.4,0-0.7,0.1-1,0.3c-0.3,0.2-0.4,0.6-0.4,1.2c0,0.6,0.1,0.9,0.4,1.2
		c0.3,0.2,0.6,0.3,0.9,0.3c0.4,0,0.7-0.1,0.9-0.3C107.1,6.9,107.2,6.6,107.2,6 M115.3,6.2c0,0.3,0,0.6,0,0.8c0,0.2,0,0.4-0.1,0.6
		h-3.9c0,0.9,0.2,1.6,0.6,2c0.3,0.4,0.8,0.6,1.5,0.6c0.2,0,0.4,0,0.6-0.1c0.2-0.1,0.3-0.1,0.5-0.2c0.1-0.1,0.2-0.1,0.3-0.2
		c0.1-0.1,0.2-0.1,0.2-0.2l0.5,0.9c-0.1,0.1-0.1,0.1-0.2,0.2c-0.1,0.1-0.3,0.2-0.4,0.3c-0.2,0.1-0.4,0.2-0.7,0.3
		c-0.3,0.1-0.6,0.1-0.9,0.1c-0.5,0-0.9-0.1-1.3-0.2c-0.4-0.2-0.7-0.4-1-0.7c-0.3-0.3-0.5-0.8-0.6-1.3c-0.2-0.5-0.2-1.1-0.2-1.8
		c0-0.7,0.1-1.3,0.2-1.8c0.2-0.5,0.4-0.9,0.6-1.2c0.3-0.3,0.6-0.6,0.9-0.7c0.3-0.2,0.7-0.2,1.1-0.2c0.7,0,1.3,0.2,1.7,0.7
		C115.1,4.6,115.3,5.3,115.3,6.2 M112.9,4.5c-0.5,0-0.8,0.2-1.1,0.6s-0.4,0.9-0.5,1.7h2.8c0-0.1,0-0.1,0-0.2c0-0.1,0-0.2,0-0.3
		c0-0.5-0.1-0.9-0.3-1.2C113.6,4.6,113.3,4.5,112.9,4.5 M120.3,5.2c-0.1-0.1-0.2-0.2-0.5-0.4c-0.2-0.2-0.5-0.2-0.9-0.2
		c-0.3,0-0.6,0.1-0.8,0.2c-0.2,0.2-0.3,0.3-0.3,0.6c0,0.3,0.1,0.5,0.2,0.7c0.2,0.2,0.4,0.4,0.8,0.6l0.5,0.3c0.5,0.3,0.9,0.6,1.2,1
		c0.3,0.4,0.4,0.8,0.4,1.4c0,0.6-0.2,1.1-0.6,1.5c-0.4,0.4-1,0.6-1.8,0.6c-0.3,0-0.6,0-0.8-0.1c-0.2-0.1-0.4-0.1-0.6-0.2
		c-0.2-0.1-0.3-0.2-0.4-0.3c-0.1-0.1-0.2-0.2-0.3-0.3l0.6-1c0.1,0.1,0.1,0.1,0.2,0.2c0.1,0.1,0.2,0.2,0.3,0.3
		c0.1,0.1,0.3,0.1,0.4,0.2c0.2,0.1,0.3,0.1,0.6,0.1c0.4,0,0.7-0.1,0.9-0.3c0.2-0.2,0.3-0.4,0.3-0.6c0-0.2,0-0.3-0.1-0.5
		c0-0.1-0.1-0.3-0.2-0.4c-0.1-0.1-0.2-0.2-0.3-0.3c-0.1-0.1-0.3-0.2-0.5-0.3l-0.5-0.3c-0.5-0.3-0.8-0.6-1.1-1
		c-0.3-0.3-0.4-0.8-0.4-1.3c0-0.3,0.1-0.5,0.2-0.8c0.1-0.2,0.3-0.4,0.5-0.6c0.2-0.2,0.4-0.3,0.7-0.4c0.3-0.1,0.6-0.2,0.9-0.2
		c0.3,0,0.5,0,0.8,0.1c0.2,0.1,0.4,0.1,0.5,0.2c0.2,0.1,0.3,0.2,0.4,0.3c0.1,0.1,0.2,0.2,0.2,0.2L120.3,5.2z M132.9,11.3h-1.5
		l-1-3.5h-3.3l-1,3.5h-1.4l3.6-10.9h1.1L132.9,11.3z M130.1,6.7l-0.9-3c-0.1-0.4-0.2-0.8-0.3-1.2c-0.1-0.4-0.1-0.7-0.1-0.9h0
		c0,0.2-0.1,0.5-0.2,0.9c-0.1,0.4-0.2,0.7-0.3,1.1l-0.9,3L130.1,6.7z M138,11.3V6.4c0-0.6-0.1-1.1-0.3-1.4c-0.2-0.3-0.5-0.4-0.9-0.4
		c-0.2,0-0.4,0-0.6,0.1c-0.2,0.1-0.3,0.1-0.4,0.2c-0.1,0.1-0.2,0.2-0.3,0.3c-0.1,0.1-0.2,0.2-0.2,0.3v5.9H134V3.6h1.2v0.9h0
		c0.1-0.1,0.1-0.2,0.2-0.3c0.1-0.1,0.2-0.2,0.4-0.3c0.2-0.1,0.3-0.2,0.6-0.3c0.2-0.1,0.4-0.1,0.7-0.1c0.9,0,1.5,0.3,1.8,1
		c0.1-0.1,0.2-0.2,0.3-0.3c0.1-0.1,0.3-0.2,0.4-0.3c0.2-0.1,0.4-0.2,0.6-0.2c0.2-0.1,0.4-0.1,0.7-0.1c1.5,0,2.3,0.9,2.3,2.7v5.1H142
		V6.4c0-0.6-0.1-1.1-0.3-1.4c-0.2-0.3-0.5-0.4-1-0.4c-0.4,0-0.7,0.1-0.9,0.3c-0.2,0.2-0.4,0.3-0.6,0.5c0,0.1,0,0.2,0,0.4
		c0,0.1,0,0.3,0,0.4v5.1L138,11.3z M148.4,4.7h-1.7v4.2c0,0.5,0.1,0.9,0.2,1.1c0.1,0.2,0.4,0.3,0.7,0.3c0.2,0,0.4,0,0.5-0.1
		c0.1-0.1,0.2-0.1,0.3-0.1l0.2,1c-0.1,0-0.2,0.1-0.4,0.2c-0.2,0.1-0.5,0.1-0.8,0.1c-0.7,0-1.1-0.2-1.5-0.5c-0.3-0.4-0.5-1-0.5-1.8
		V4.7h-0.9V3.8l0.9-0.2l0.1-2.1h1.1v2.1h1.8L148.4,4.7z"/>
	<path class="st0" d="M41.9,53.9h2v26.7h-4.7V53.9H41.9z"/>
	<path class="st1" d="M41.9,27.1h2v26.8h-4.7V27.1L41.9,27.1z"/>
	<path d="M27.1,9.9c1.4,2.2,2.4,2.1,4,2.1c-1.3-1-2.2-2.3-2.6-3L26,5c-0.2-1.2-0.9-2.4-1.8-3.2c0.3-0.1,0.6-0.3,0.7-0.4
		c-1.6,0-3.2-0.8-4.1-0.8c-0.6,0-0.9,0.3-0.9,0.8c0,0.5,0.6,1,1.5,1c0.2,0,0.5,0,0.8-0.1c0.5,0.7,0.9,1.4,0.9,2.3
		c0,1.8-2.1,3.1-4.2,3.1c-0.1,0-0.2,0-0.3,0c-0.2-0.4-0.8-1.2-0.8-2c0-1.4,0.9-2.5,0.9-3.9c0-0.9-0.4-1.4-0.6-1.6
		c0.3-0.2,0.5-0.5,0.6-0.7c-0.2,0.1-0.3,0.1-0.6,0.1c-1,0-1.8-0.3-2.6-0.3c-0.5,0-0.6,0.1-0.6,0.3c0,0,0,0.1,0,0.1
		c-0.2-0.1-0.3-0.1-0.5-0.1c-0.2,0-0.5-0.1-0.8-0.1c-1,0-1.3,0.4-1.3,0.8c0,0.3,0.2,0.8,0.5,1.3c0.4-0.2,0.8-0.3,1-0.3
		c0.5,0,1,0.5,1.2,1.1c-0.3,0-0.4,0.1-0.8,0.1c-0.9,0-1.6-0.3-1.7-0.3c0,0,0,0,0,0c0,0.1,0.3,0.5,0.8,0.7C14,2.9,15,3.1,15.2,3.1
		c0,0-0.2,0.4-0.4,0.4c0,0-0.1,0-0.1,0C14,3.4,13.8,3.3,12.9,3c0,0,0,0,0,0c0,0.4,0.9,1.2,1.8,1.5c-0.7,0.9-1.6,1.8-2,3.3
		c-0.1,0-0.2,0-0.3,0C10.1,7.7,8,6.4,8,4.6C8,3.7,8.5,3,9,2.3c0.3,0.1,0.6,0.1,0.8,0.1c1,0,1.5-0.5,1.5-1c0-0.5-0.4-0.8-0.9-0.8
		c-0.9,0-2.5,0.8-4.1,0.8C6.4,1.5,6.6,1.7,7,1.8C6,2.7,5.4,3.8,5.1,5L2.6,9C2.2,9.7,1.3,11,0,12c1.6,0,2.7,0,4-2.1l1.3-2
		c0.1,0.3,0.2,0.5,0.3,0.8l-2.5,4.1c-0.4,0.7-1.3,2-2.6,3c1.6,0,2.7,0,4-2.1l2.2-3.5c0.2,0.2,0.3,0.3,0.5,0.5l-3.1,4.9
		c-0.4,0.7-1.3,2-2.6,3c1.6,0,2.7,0,4-2.1l3-4.8C8.8,11.7,9,11.8,9.2,12l-3.7,5.9c-0.4,0.7-1.3,2-2.6,3c1.6,0,2.7,0,4-2.1l3.8-6.1
		c0.2,0.1,0.5,0.2,0.7,0.2l-4.3,6.8c-0.4,0.7-1.3,2-2.6,3c1.6,0,2.7,0,4-2.1l4.6-7.3c0,0,0.1,0,0.1,0c0.1,0.4,0.2,0.8,0.2,1.1
		c0,2.3-1.5,4.3-3.3,5.9c0.1,0.1,0.3,0.1,0.5,0.1c0.4,0,0.6,0,0.8-0.1c-0.4,1-1.3,2.2-1.8,2.8C9,23.1,8.2,23,7.6,23
		C7,23,7,23.4,7,23.7c0,0.5,0.3,1,0.5,1.2c0.1-0.3,0.3-0.6,1.4-0.6c0,0,0.1,0,0.1,0c-0.3,0.4-1.3,1.2-1.3,1.8c0,0.4,0.5,1.1,1.1,1.1
		c0-0.1,0-0.3,0-0.4c0-0.5,0.5-1.1,0.9-1.6c0,0.1,0,0.1,0,0.3c0,1.2,0.1,1.8,0.9,1.8c0.4,0,0.7-0.2,0.7-0.3
		c-0.5-0.5-0.5-0.8-0.5-1.5v-0.6c0-0.2,0-0.4,0-0.5c0.3,0,0.4,0,0.6,0c0,0,1.1-0.1,1.4,0.5c0.3-0.3,0.7-0.7,0.7-1.1
		c0-0.3-0.1-0.6-0.7-0.6c-0.2,0-0.9,0.1-1.5,0.1c0.2-0.3,0.8-1.3,1.4-2.1c0.1,0.3,0.2,0.6,0.5,0.8c0-0.5,0.3-2,1.1-2.8
		c0.1,0.6,0.2,1.2,0.2,2.5c0,3.1-0.7,5.4-2.3,5.8c0.2,0.4,0.6,0.7,1.1,0.7c0.6,0,0.9-0.7,1.2-1.3c0.2,0.5,0.6,1.6,1.1,1.6
		c0.5,0,0.9-1.1,1.1-1.6c0.3,0.6,0.6,1.3,1.2,1.3c0.4,0,0.9-0.3,1.1-0.7c-1.6-0.4-2.3-2.7-2.3-5.8c0-1.3,0.1-1.9,0.2-2.5
		c0.7,0.9,1,2.3,1.1,2.8c0.3-0.3,0.5-0.6,0.5-0.8c0.6,0.7,1.3,1.7,1.4,2.1c-0.6,0-1.3-0.1-1.5-0.1c-0.6,0-0.7,0.3-0.7,0.6
		c0,0.4,0.4,0.8,0.7,1.1c0.3-0.6,1.4-0.5,1.4-0.5c0.2,0,0.3,0,0.6,0c0,0.2,0,0.4,0,0.5c0,0.2,0,0.4,0,0.6c0,0.7,0,1.1-0.5,1.5
		c0.1,0.1,0.4,0.3,0.7,0.3c0.8,0,0.9-0.6,0.9-1.8c0-0.2,0-0.1,0-0.3c0.4,0.4,0.9,1,0.9,1.6c0,0.1,0,0.2,0,0.4c0.6,0,1.1-0.6,1.1-1.1
		c0-0.7-1-1.5-1.3-1.8c0.1,0,0.1,0,0.1,0c1.1,0,1.3,0.4,1.4,0.6c0.3-0.2,0.5-0.7,0.5-1.2c0-0.3-0.1-0.7-0.7-0.7
		c-0.6,0-1.4,0.1-2,0.2c-0.5-0.6-1.3-1.9-1.8-2.8c0.2,0,0.4,0.1,0.8,0.1c0.2,0,0.4,0,0.5-0.1c-1.8-1.6-3.3-3.6-3.3-5.9
		c0-0.4,0.1-0.7,0.2-1.1c0,0,0.1,0,0.1,0l4.6,7.3c1.4,2.2,2.4,2.1,4,2.1c-1.3-1-2.2-2.3-2.6-3l-4.3-6.8c0.2-0.1,0.5-0.2,0.7-0.2
		l3.8,6.1c1.4,2.2,2.4,2.1,4,2.1c-1.3-1-2.2-2.3-2.6-3L22,12c0.2-0.1,0.4-0.2,0.6-0.4l3,4.8c1.4,2.2,2.4,2.1,4,2.1
		c-1.3-1-2.2-2.3-2.6-3l-3.1-4.9c0.2-0.2,0.4-0.3,0.5-0.5l2.2,3.5c1.4,2.2,2.4,2.1,4,2.1c-1.3-1-2.2-2.3-2.6-3l-2.5-4.1
		c0.1-0.3,0.3-0.5,0.3-0.8L27.1,9.9z M6.7,5.2c0-1.5,1.1-2.7,1.5-3.1c0.1,0,0.2,0,0.3,0.1C8,2.7,7.3,3.6,7.3,4.7
		c0,2.2,2.4,4.2,5.1,4.2c0,0.2,0,0.4,0,0.6c0,0.3,0,0.6,0,0.9C9.4,10.4,6.7,7.9,6.7,5.2 M10.8,23.5L10.8,23.5L10.8,23.5
		c0.9,0.1,1.3,0,1.6-0.1c0.1,0,0.3,0,0.4,0c0.2,0,0.4,0,0.4,0.3c0,0.2-0.2,0.5-0.4,0.6c-0.3-0.3-0.8-0.4-1.4-0.4
		c-0.3,0-0.7,0.1-0.9,0.1l0,0l0,0l0,0.1c0,0.2,0.1,0.4,0.1,0.7v0.3l0,0.3c0,0.7,0.1,1.1,0.4,1.5c-0.1,0-0.2,0-0.2,0
		c-0.5,0-0.6-0.2-0.6-1.5c0-0.3,0-0.5,0-0.7l0-0.2l-0.1,0c-0.7,0.5-1.4,1.4-1.4,2.1C8.2,26.6,8,26.3,8,26c0-0.4,0.6-0.9,1.2-1.6
		l0.4-0.4l0,0l-0.1,0c-0.1,0-0.4-0.1-0.6-0.1c-0.7,0-1.2,0.1-1.5,0.4c-0.1-0.1-0.2-0.5-0.2-0.7c0-0.1,0-0.2,0.1-0.3
		c0.1-0.1,0.2-0.1,0.3-0.1h0c0.8,0,1.8,0.1,2.1,0.2l0,0l0,0c0.1-0.1,1.6-2.1,2-3.2c0.1,0,0.2-0.1,0.3-0.1c0.3,0,0.4,0.2,0.5,0.5
		C11.6,21.9,11,22.8,10.8,23.5 M19,20.3c0.2,0,0.2,0,0.3,0.1c0.4,1.1,1.9,3.1,2,3.2l0,0l0,0c0.4-0.1,1.3-0.2,2.1-0.2h0
		c0.1,0,0.2,0,0.3,0.1c0.1,0.1,0.1,0.1,0.1,0.3c0,0.2-0.1,0.5-0.2,0.7c-0.3-0.3-0.7-0.4-1.5-0.4c-0.2,0-0.5,0.1-0.6,0.1l-0.1,0
		l-0.1,0l0.4,0.4c0.7,0.6,1.2,1.2,1.2,1.6c0,0.2-0.2,0.5-0.4,0.6c0-0.7-0.7-1.6-1.4-2.1l-0.1,0l0,0.2c0,0.2,0,0.4,0,0.7
		c0,1.3-0.1,1.5-0.6,1.5c-0.1,0-0.2,0-0.2,0c0.3-0.3,0.4-0.7,0.4-1.5l0-0.3l0-0.3c0-0.3,0-0.5,0.1-0.7l0-0.1l-0.1,0
		c-0.2,0-0.6-0.1-0.9-0.1c-0.6,0-1.1,0.1-1.4,0.4c-0.2-0.2-0.4-0.5-0.4-0.6c0-0.3,0.2-0.3,0.4-0.3c0.1,0,0.2,0,0.4,0
		c0.3,0,0.7,0.1,1.5,0.1h0.1l0-0.1c-0.2-0.6-0.8-1.5-1.8-2.7C18.7,20.5,18.7,20.3,19,20.3 M15.5,2.5c-0.1-0.4-0.3-0.8-0.6-1.1
		c-0.2-0.3-0.6-0.6-1.1-0.6c-0.2,0-0.6,0.1-0.9,0.2c-0.1-0.2-0.3-0.6-0.3-0.8c0-0.2,0.3-0.4,1-0.4c1.4,0,2.2,0.6,2.2,1.7
		C15.8,1.9,15.6,2.2,15.5,2.5 M16.1,1.2c0-0.3-0.2-0.6-0.3-0.8c0-0.3,0.1-0.5,0.6-0.3c-0.2,0.2-0.1,0.7-0.1,0.7s0.5-0.2,0.4-0.5
		C17.4,0.4,16.9,1.3,16.1,1.2 M18.8,10.4c0-0.3,0.1-0.6,0.1-0.9c0-0.2,0-0.4,0-0.6c2.7,0,5-2,5-4.2c0-1.1-0.7-2-1.1-2.5
		c0.1,0,0.2,0,0.3-0.1c0.4,0.3,1.5,1.5,1.5,3.1C24.5,7.9,21.8,10.3,18.8,10.4"/>
	<path d="M43.9,0.6v26.7h-4.7V0.6H43.9z"/>
</g>
</svg>
