<?xml version="1.0" encoding="utf-8"?>
<!-- Generator: Adobe Illustrator 25.4.1, SVG Export Plug-In . SVG Version: 6.00 Build 0)  -->
<svg version="1.1" id="svg5701" xmlns:svg="http://www.w3.org/2000/svg"
	 xmlns="http://www.w3.org/2000/svg" xmlns:xlink="http://www.w3.org/1999/xlink" x="0px" y="0px" viewBox="0 0 1024 561"
	 style="enable-background:new 0 0 1024 561;" xml:space="preserve">
<style type="text/css">
	.st0{fill:#838383;}
</style>
<path id="path3094" class="st0" d="M996.8,480.1h10.9v64h-10.9V480.1z M974.1,534.3v9.8h-42.5v-64h42v9.8h-31.1v16.2h26.9v9.8h-26.9
	v18.4H974.1z M872,510.4h14.3c6.3,0,10.7-3,10.7-10.2c0-6.9-4.1-10.3-10.3-10.3H872V510.4z M883.5,520.2H872v23.9h-10.9v-64h26.8
	c13.1,0,20.4,8.1,20.4,20.1c0,8.9-4.4,16.1-13.4,18.3l15.7,25.6h-12.9L883.5,520.2z M838.3,534.3v9.8h-42.5v-64h42v9.8h-31.1v16.2
	h26.9v9.8h-26.9v18.4H838.3z M743.8,515.6l-9.1,10.6v17.9h-10.9v-64h10.9v31l26.6-31h13.2l-22.7,26.7l23,37.3h-13.7L743.8,515.6z
	 M681.6,535.3c5.1,0,9.3-0.5,19.2-2.8l2.4,9.2c-8.4,2.4-15,3.4-22.6,3.4c-22.2,0-27.8-15.1-27.8-33.4c0-18,5.6-32.5,27.8-32.5
	c7.5,0,14.2,0.9,22.6,3.4l-2.4,9.2c-9.9-2.4-14.1-2.8-19.2-2.8c-13.4,0-17.3,9.5-17.3,22.7C664.3,525.7,668.3,535.3,681.6,535.3
	 M581.9,480.1h10.9v41.4c0,8.4,3.4,14.3,13.7,14.3c11.6,0,13.6-7.3,13.6-14.3v-41.4H631v41.4c0,16.6-9.4,23.5-24.6,23.5
	c-15.2,0-24.6-6.9-24.6-23.5L581.9,480.1z M522.3,510.4h14.3c6.3,0,10.7-3,10.7-10.2c0-6.9-4.1-10.3-10.3-10.3h-14.7V510.4z
	 M533.8,520.2h-11.5v23.9h-10.9v-64h26.8c13.1,0,20.4,8.1,20.4,20.1c0,8.9-4.4,16.1-13.5,18.3l15.7,25.6H548L533.8,520.2z
	 M449.5,489.9v44.4h12.3c13.3,0,16.3-9.5,16.3-22.7s-3-21.7-16.3-21.7L449.5,489.9L449.5,489.9z M461.9,480.1
	c21.5,0,27.8,13.6,27.8,31.5c0,18.2-6.2,32.5-27.8,32.5h-23.2v-64L461.9,480.1z M405.3,526.6c0-6.9-8.3-8.4-15.4-10.3
	c-10.8-2.9-19.4-8.8-19.4-19.7c0-12.5,10.2-17.4,22.7-17.4c7.1,0,13.7,0.9,22.1,3.4l-2.4,9.2c-9.9-2.4-14.6-2.8-19.7-2.8
	c-8,0-11.2,3.5-11.2,8c0,6.2,8.2,8.3,15.5,10.1c10.8,2.4,19.3,7.5,19.3,18.7c0,13.2-10.2,19.3-23.6,19.3c-7.2,0-15.3-0.9-23.6-3.4
	l1.8-9.2c10,2.4,16.7,2.8,21.8,2.8C401.2,535.3,405.3,531.3,405.3,526.6 M347.8,534.3v9.8h-42.5v-64h42v9.8h-31.1v16.2h26.9v9.8
	h-26.9v18.4H347.8z M243.3,489.9v44.4h12.3c13.3,0,16.3-9.5,16.3-22.7s-3-21.7-16.3-21.7L243.3,489.9L243.3,489.9z M255.7,480.1
	c21.5,0,27.7,13.6,27.7,31.5c0,18.2-6.2,32.5-27.7,32.5h-23.2v-64L255.7,480.1z M197.2,544.1l-27.8-42.6h-0.2v42.6h-10.6v-64h10.9
	l28.3,43.7h0.2v-43.7h10.6v64H197.2z M85.9,480.1h10.9v41.4c0,8.4,3.4,14.3,13.7,14.3c11.6,0,13.6-7.3,13.6-14.3v-41.4H135v41.4
	c0,16.6-9.4,23.5-24.6,23.5s-24.6-6.9-24.6-23.5L85.9,480.1z M26.8,516.2v18.1h15.6c6.2,0,10.2-2.4,10.2-9c0-6.2-3.9-9-10.8-9
	L26.8,516.2L26.8,516.2z M26.8,489.9v16.6h14.3c6.3,0,9.6-2.6,9.6-8.3c0-5.3-3.3-8.3-9.6-8.3L26.8,489.9z M52.1,511.2
	c7.4,2,12,7.3,12,15.5c0,10.8-6.8,17.4-19.9,17.4H15.9v-64h26.4c13.1,0,19.9,6.1,19.9,16.4c0,7-3.8,12.4-10.1,14.5V511.2z"/>
<path id="path3102" class="st0" d="M992.1,112h-176c-35.4,0-64,28.7-64,64v95.9c0,8.8,7.2,16,16,16h32c8.8,0,16-7.2,16-16v-89.5
	c0-3.5,2.9-6.4,6.4-6.4h169.6c8.8,0,16-7.2,16-16v-32C1008.1,119.1,1000.9,112,992.1,112"/>
<path id="path3106" class="st0" d="M704,112.1V32c0-8.8-7.2-16-16-16h-32c-8.9,0-16,7.2-16,16v73.7c0,3.5-2.9,6.4-6.4,6.4H448
	c-35.4,0-64,28.7-64,64v112c0,35.4,28.7,64,64,64h176c8.8,0,16-7.2,16-16v-32c0-8.8-7.1-16-16-16H454.4c-3.5,0-6.4-2.9-6.4-6.4
	v-99.1c0-3.5,2.9-6.4,6.4-6.4h179.2c3.6,0,6.4,2.9,6.4,6.4v89.6c0,8.9,7.2,16,16,16h32c8.8,0,16-7.2,16-16v-96l0,0V112.1z"/>
<path id="path3110" class="st0" d="M992.1,288h-32c-8.8,0-16,7.2-16,16v32c0,8.8,7.2,16,16,16h32c8.8,0,16-7.2,16-16v-32
	C1008.1,295.2,1001,288,992.1,288 M336,176c0-35.4-28.7-64-64-64H86.3c-3.5,0-6.4-2.9-6.4-6.4V32c0-8.8-7.2-16-16-16h-32
	c-8.8,0-16,7.2-16,16v80v64v96c0,8.8,7.2,16,16,16h32c8.8,0,16-7.2,16-16v-89.6c0-3.5,2.9-6.4,6.4-6.4h179.2c3.5,0,6.4,2.9,6.4,6.4
	v99.2c0,3.5-2.9,6.4-6.4,6.4H95.8c-8.8,0-16,7.1-16,16v32.1c0,8.8,7.1,15.9,16,15.9h176.1c35.4,0,64-28.7,64-64L336,176z"/>
</svg>
