<?xml version="1.0" encoding="utf-8"?>
<!-- Generator: Adobe Illustrator 25.4.1, SVG Export Plug-In . SVG Version: 6.00 Build 0)  -->
<svg version="1.1" id="Layer_1" xmlns="http://www.w3.org/2000/svg" xmlns:xlink="http://www.w3.org/1999/xlink" x="0px" y="0px"
	 viewBox="0 0 268.2 187.7" style="enable-background:new 0 0 268.2 187.7;" xml:space="preserve">
<style type="text/css">
	.st0{fill:#4A4A4A;}
	.st1{fill:#E3DECC;}
</style>
<path class="st0" d="M240.8-0.4H26.2C11.5-0.5-0.6,11.4-0.7,26.1c0,0.1,0,0.1,0,0.2v133.9c0,14.9,12.1,27,27,27l0,0h214.5
	c14.8-0.1,26.7-12.2,26.7-27V26.4C267.5,11.6,255.6-0.3,240.8-0.4C240.8-0.4,240.8-0.4,240.8-0.4"/>
<path class="st1" d="M248.1,160.2c0,4.3-2.8,7.7-7.1,7.7H26.4c-4.1,0-7.4-3.4-7.4-7.4c0-0.1,0-0.2,0-0.2V26.3
	c-0.2-4.1,3-7.5,7.1-7.7c0.1,0,0.2,0,0.3,0H241c4.3,0,7.1,3.4,7.1,7.7"/>
<path class="st0" d="M191.5,154.7h-47.7V31.8h49.9c23.6,0,36.3,9.7,36.3,32.7c0,12-9.9,20.5-20.7,25.9c15,4.2,25.2,13.4,25.2,28.7
	C234.7,144.1,213.7,154.7,191.5,154.7 M173.1,80.5h10.2c9.6,0,16.7-4.3,16.7-14.8c0-11.7-9.1-14.8-18.7-14.8h-8.2V80.5z
	 M203.4,118.6c0-12.5-7.9-15.4-19.6-15.4h-10.8v31.6h10.5C194.1,134.8,203.4,131.4,203.4,118.6"/>
<path class="st0" d="M82.1,154.7H37V31.8h45.1c31.8,0,48.8,19.9,48.8,60.9C130.9,128.2,119.5,154.4,82.1,154.7 M101.6,95.2
	c0-24.7-2.6-44.1-29.2-44.1h-6v83.6H77C92.6,134.8,101.7,122.3,101.6,95.2"/>
</svg>
